HIERARCHY
ROOT joint_Root
{
	OFFSET 0.0 0.0 0.0
	CHANNELS 6 Xposition Yposition Zposition Zrotation Xrotation Yrotation 
	JOINT Hips
	{
		OFFSET -0.726466 93.3139 -2.00062
		CHANNELS 6 Xposition Yposition Zposition Zrotation Xrotation Yrotation 
		JOINT Spine
		{
			OFFSET 15.7357 0.0 0.0
			CHANNELS 6 Xposition Yposition Zposition Zrotation Xrotation Yrotation 
			JOINT Chest
			{
				OFFSET 8.98455 -0.406207 0.0
				CHANNELS 6 Xposition Yposition Zposition Zrotation Xrotation Yrotation 
				JOINT Neck
				{
					OFFSET 16.3773 0.0 0.0
					CHANNELS 6 Xposition Yposition Zposition Zrotation Xrotation Yrotation 
					JOINT Head
					{
						OFFSET 6.45672 0.0 0.0
						CHANNELS 6 Xposition Yposition Zposition Zrotation Xrotation Yrotation 
						End Site
						{
							OFFSET 0.0 0.0 0.0
						}
					}
				}
				JOINT Shoulder_L
				{
					OFFSET 12.9942 -0.242716 4.98039
					CHANNELS 6 Xposition Yposition Zposition Zrotation Xrotation Yrotation 
					JOINT UpperArm_L
					{
						OFFSET 5.34809 0.0 0.0
						CHANNELS 6 Xposition Yposition Zposition Zrotation Xrotation Yrotation 
						JOINT LowerArm_L
						{
							OFFSET 24.3286 1.87007e-05 0.0
							CHANNELS 6 Xposition Yposition Zposition Zrotation Xrotation Yrotation 
							JOINT Hand_L
							{
								OFFSET 22.2916 0.0 0.0
								CHANNELS 6 Xposition Yposition Zposition Zrotation Xrotation Yrotation 
								End Site
								{
									OFFSET 0.0 0.0 0.0
								}
							}
						}
					}
				}
				JOINT Shoulder_R
				{
					OFFSET 12.9945 -0.242716 -4.98039
					CHANNELS 6 Xposition Yposition Zposition Zrotation Xrotation Yrotation 
					JOINT UpperArm_R
					{
						OFFSET -5.34813 0.0 0.0
						CHANNELS 6 Xposition Yposition Zposition Zrotation Xrotation Yrotation 
						JOINT LowerArm_R
						{
							OFFSET -24.3289 0.000322201 0.0
							CHANNELS 6 Xposition Yposition Zposition Zrotation Xrotation Yrotation 
							JOINT Hand_R
							{
								OFFSET -22.2915 -0.000108084 0.0
								CHANNELS 6 Xposition Yposition Zposition Zrotation Xrotation Yrotation 
								End Site
								{
									OFFSET 0.0 0.0 0.0
								}
							}
						}
					}
				}
			}
		}
		JOINT UpperLeg_L
		{
			OFFSET -2.19248 -6.46944 0.0
			CHANNELS 6 Xposition Yposition Zposition Zrotation Xrotation Yrotation 
			JOINT LowerLeg_L
			{
				OFFSET 39.0811 0.0 -1.23785e-05
				CHANNELS 6 Xposition Yposition Zposition Zrotation Xrotation Yrotation 
				JOINT Foot_L
				{
					OFFSET 40.9854 0.0 -1.26872e-05
					CHANNELS 6 Xposition Yposition Zposition Zrotation Xrotation Yrotation 
					JOINT Toes_L
					{
						OFFSET 11.7543 0.0 0.0
						CHANNELS 6 Xposition Yposition Zposition Zrotation Xrotation Yrotation 
						End Site
						{
							OFFSET 0.0 0.0 0.0
						}
					}
				}
			}
		}
		JOINT UpperLeg_R
		{
			OFFSET -2.19251 6.46944 0.0
			CHANNELS 6 Xposition Yposition Zposition Zrotation Xrotation Yrotation 
			JOINT LowerLeg_R
			{
				OFFSET -39.0811 -0.00228153 -0.0401928
				CHANNELS 6 Xposition Yposition Zposition Zrotation Xrotation Yrotation 
				JOINT Foot_R
				{
					OFFSET -40.9854 0.0 0.0
					CHANNELS 6 Xposition Yposition Zposition Zrotation Xrotation Yrotation 
					JOINT Toes_R
					{
						OFFSET -11.7543 0.0 0.0
						CHANNELS 6 Xposition Yposition Zposition Zrotation Xrotation Yrotation 
						End Site
						{
							OFFSET 0.0 0.0 0.0
						}
					}
				}
			}
		}
	}
}
MOTION
Frames:	4
Frame Time:	0.0333333
0.000000 0.000000 0.000000 0.000000 0.000000 -0.000000 -1.251910 92.856800 -0.508757 89.033700 -2.387710 2.446870 15.735700 0.000005 -0.000001 91.989800 86.247800 -91.982400 8.984550 -0.406207 -0.000000 -0.266195 0.259980 0.015352 16.377300 -0.000001 -0.000001 4.223450 -2.540600 2.418530 6.456720 -0.000001 -0.000000 8.286420 -2.099980 -3.741240 12.994200 -0.242716 4.980390 -90.819300 2.603000 -72.522200 5.348090 -0.000007 -0.000001 -67.778900 36.067500 -12.587900 24.328600 0.000019 0.000005 4.846860 11.286500 -23.424000 22.291600 -0.000001 0.000005 1.750000 5.479080 -5.714280 12.994500 -0.242716 -4.980390 87.531800 7.931580 -72.652500 -5.348130 -0.000001 -0.000004 -64.044300 42.347700 -11.624200 -24.328900 0.000322 -0.000009 3.123790 8.699300 -19.846900 -22.291500 -0.000108 -0.000004 6.607330 5.363130 -1.775240 -2.192480 -6.469440 -0.000000 -176.404000 -7.532070 -1.501900 39.081100 -0.000007 -0.000012 -0.061370 0.195044 17.466000 40.985400 -0.000006 -0.000013 -0.482091 4.059720 -63.650700 11.754300 -0.000000 0.000003 -0.000002 -0.000029 -16.578600 -2.192510 6.469440 -0.000001 179.709000 9.946470 -179.985000 -39.081100 -0.002282 -0.040193 -0.052874 0.206911 15.196800 -40.985400 0.000008 0.000006 1.736920 7.406320 -63.171600 -11.754300 -0.000006 -0.000006 -0.005911 -0.070021 -19.422800
0.000000 0.000000 0.000000 0.000000 0.000000 -0.000000 -1.253780 92.858700 -0.530962 89.054100 -2.338430 2.491920 15.735700 0.000005 -0.000001 92.099300 86.217500 -92.066500 8.984550 -0.406207 -0.000000 -0.206267 0.274760 0.066122 16.377300 -0.000001 -0.000001 4.135370 -2.621490 2.527050 6.456720 -0.000001 -0.000000 8.247830 -2.144350 -3.978520 12.994200 -0.242716 4.980390 -90.995300 3.182770 -72.625700 5.348090 -0.000007 -0.000001 -67.080900 32.945300 -12.198500 24.328600 0.000019 0.000005 5.213100 10.504100 -26.595400 22.291600 -0.000001 0.000005 -0.300407 5.502870 -6.656780 12.994500 -0.242716 -4.980390 87.553000 7.853250 -72.632500 -5.348130 -0.000001 -0.000004 -64.226200 42.154200 -11.539100 -24.328900 0.000322 -0.000009 3.138320 8.736590 -19.854300 -22.291500 -0.000108 -0.000004 6.573760 5.362900 -1.768040 -2.192480 -6.469440 -0.000000 -176.423000 -7.440520 -1.465940 39.081100 -0.000007 -0.000012 -0.061136 0.194584 17.442000 40.985400 -0.000006 -0.000013 -0.487667 4.047540 -63.622600 11.754300 -0.000000 0.000003 -0.000002 -0.000025 -16.578500 -2.192510 6.469440 -0.000001 179.689000 9.997170 -179.954000 -39.081100 -0.002282 -0.040193 -0.052330 0.204721 15.210100 -40.985400 0.000008 0.000006 1.743010 7.386720 -63.171500 -11.754300 -0.000006 -0.000006 -0.005879 -0.069728 -19.410800
0.000000 0.000000 0.000000 0.000000 0.000000 -0.000000 -1.290790 92.852300 -0.557545 89.056500 -2.195510 2.584170 15.735700 0.000005 -0.000001 92.205300 86.167700 -92.140700 8.984550 -0.406207 -0.000000 -0.107358 0.290421 0.129420 16.377300 -0.000001 -0.000001 4.034790 -2.667550 2.672800 6.456720 -0.000001 -0.000000 8.201030 -2.174490 -4.205070 12.994200 -0.242716 4.980390 -91.193400 3.803850 -72.567000 5.348090 -0.000007 -0.000001 -65.330900 29.396400 -12.554400 24.328600 0.000019 0.000005 3.696700 5.963930 -31.904500 22.291600 -0.000001 0.000005 0.325081 5.535810 -8.038430 12.994500 -0.242716 -4.980390 87.582100 7.774790 -72.665100 -5.348130 -0.000001 -0.000004 -64.432000 41.991900 -11.371700 -24.328900 0.000322 -0.000009 3.094720 8.593930 -19.896900 -22.291500 -0.000108 -0.000004 6.528150 5.362450 -1.754520 -2.192480 -6.469440 -0.000000 -176.394000 -7.329890 -1.446350 39.081100 -0.000007 -0.000012 -0.061344 0.194345 17.518000 40.985400 -0.000006 -0.000013 -0.502712 4.089270 -63.630600 11.754300 -0.000000 0.000003 -0.000001 -0.000018 -16.578200 -2.192510 6.469440 -0.000001 179.686000 10.151500 -179.905000 -39.081100 -0.002282 -0.040193 -0.052752 0.205174 15.287700 -40.985400 0.000008 0.000006 1.774470 7.400670 -63.208800 -11.754300 -0.000006 -0.000006 -0.005988 -0.070724 -19.451400
0.000000 0.000000 0.000000 0.000000 0.000000 -0.000000 -1.352140 92.850200 -0.601456 89.046800 -1.948090 2.617700 15.735700 0.000005 -0.000001 92.662900 86.140000 -92.588400 8.984550 -0.406207 -0.000000 -0.054520 0.353492 0.149104 16.377300 -0.000001 -0.000001 4.028270 -2.706470 2.731140 6.456720 -0.000001 -0.000000 8.042910 -2.413120 -4.096680 12.994200 -0.242716 4.980390 -91.249800 3.932900 -72.355700 5.348090 -0.000007 -0.000001 -63.167900 25.301700 -14.111300 24.328600 0.000019 0.000005 2.521850 3.058920 -39.544100 22.291600 -0.000001 0.000005 2.847750 5.565870 -9.454850 12.994500 -0.242716 -4.980390 87.577600 7.786050 -72.658600 -5.348130 -0.000001 -0.000004 -64.535200 42.040500 -11.176800 -24.328900 0.000322 -0.000009 3.086500 8.548450 -19.944700 -22.291500 -0.000108 -0.000004 6.478540 5.361450 -1.724480 -2.192480 -6.469440 -0.000000 -176.345000 -7.211950 -1.513940 39.081100 -0.000007 -0.000012 -0.061580 0.194254 17.589000 40.985400 -0.000006 -0.000013 -0.525524 4.180370 -63.606800 11.754300 -0.000000 0.000003 -0.000003 -0.000045 -16.579300 -2.192510 6.469440 -0.000001 179.731000 10.357200 -179.892000 -39.081100 -0.002282 -0.040193 -0.052723 0.204757 15.309900 -40.985400 0.000008 0.000006 1.814020 7.347770 -63.215200 -11.754300 -0.000006 -0.000006 -0.005955 -0.070429 -19.439400
